# xmcd CD database file
#
# Track frame offsets:
#	150
#	17050
#	40387
#	60132
#	87065
#	111282
#	133870
#	151380
#	168930
#	184285
#	198350
#	218197
#	237862
#	256730
#	281980
#
# Disc length: 3983 seconds
#
# Revision: 0
# Processed by: cddbd v1.5.2PL0 Copyright (c) Steve Scherf et al.
# Submitted via: CdAid (MTCDDB.DLL V2003.12.21)
#
DISCID=ce0f8d0f
DTITLE=Various Artist - O Melhor do Rap Nacional - Volume 2
DYEAR=2000
DGENRE=Rap
TTITLE0=Sistema Negro - Mensagem para Otários
TTITLE1=Consciência Humana - Navio Negreiro
TTITLE2=Produto da Rua - Uma Peça
TTITLE3=Filosofia de Rua - Quem É Você
TTITLE4=Derek Sisten Rap - Nossa Vez
TTITLE5=Duck Jan and Nação Hip Hop - Colarinho Branco
TTITLE6=Balinhas do Rap - Moleques de Rua
TTITLE7=Derek Sisten Rap - Corrupção Policial
TTITLE8=Unit X - Bendita Seja Sua Fé
TTITLE9=Radicais do Peso - Peso
TTITLE10=MC Kult "Produto da Rua" - Problemas do Mundo
TTITLE11=Balinhas do Rap - Detonando a Galera
TTITLE12=Duck Jan and Nação Hip Hop - Matas Verdes
TTITLE13=Derek sisten Rap - Camburão
TTITLE14=R.P.W. - Pule ou Empurre
EXTD=ID3G:  15 YEAR: 2000
EXTT0=
EXTT1=
EXTT2=
EXTT3=
EXTT4=
EXTT5=
EXTT6=
EXTT7=
EXTT8=
EXTT9=
EXTT10=
EXTT11=
EXTT12=
EXTT13=
EXTT14=
PLAYORDER=
